<?xml version="1.0" encoding="utf-8"?>
<!-- Generator: Adobe Illustrator 24.3.0, SVG Export Plug-In . SVG Version: 6.00 Build 0)  -->
<svg version="1.1" id="background_pc" class="u-show--pc" xmlns="http://www.w3.org/2000/svg" xmlns:xlink="http://www.w3.org/1999/xlink" x="0px"
	 y="0px" viewBox="0 0 1323 288" style="enable-background:new 0 0 1323 288;" xml:space="preserve">
<style type="text/css">
	.st0{fill:#88B83E;}
	.st1{fill-rule:evenodd;clip-rule:evenodd;fill:#88B83E;}
</style>
<g id="tree_1_" transform="translate(-145.446 6066.325)">
	<path id="パス_453" class="st0" d="M232.2-5778.5l-4.7-15l11.1-0.3l-6.9-8.7l7.5-1.5l-8.9-11.2l7.6-0.3l-9.3-13.6l7.6-0.3
		l-16.5-21.3l-13.2,19.8l9.4-0.3l-10.4,13.3l9.4-0.3l-11.4,12.9l11.6-0.1l-12.8,13.6l15.5-1.1l0.4,15.8L232.2-5778.5z"/>
	<path id="パス_454" class="st0" d="M276.6-5771.9l-3.7-17.3l12.5,0.9l-6.8-10.5l8.5-0.9l-8.8-13.5l8.6,0.5l-8.9-16.2l8.6,0.5
		l-16.2-25.6l-16.9,20.8l10.5,0.7l-13,13.8l10.5,0.7l-14.2,13.3l13,1.2l-15.8,13.9l17.4,0.4l-1.3,17.7L276.6-5771.9z"/>
	<path id="パス_455" class="st0" d="M304.9-5775l2.9-16.5l-11.8,1.3l6-10.2l-8.1-0.5l7.8-13.1l-8.1,0.8l7.8-15.7l-8.1,0.8
		l14.4-24.8l16.7,19.1l-9.9,1.1l12.8,12.5l-9.9,1.1l13.9,12l-12.3,1.6l15.4,12.5L318-5792l1.8,16.7L304.9-5775z"/>
</g>
<g id="tree" transform="translate(988.554 6066.325)">
	<path id="パス_453-2" class="st0" d="M232.2-5778.5l-4.7-15l11.1-0.3l-6.9-8.7l7.5-1.5l-8.9-11.2l7.6-0.3l-9.3-13.6l7.6-0.3
		l-16.5-21.3l-13.2,19.8l9.4-0.3l-10.4,13.3l9.4-0.3l-11.4,12.9l11.6-0.1l-12.8,13.6l15.5-1.1l0.4,15.8L232.2-5778.5z"/>
	<path id="パス_454-2" class="st0" d="M276.6-5771.9l-3.7-17.3l12.5,0.9l-6.8-10.5l8.5-0.9l-8.8-13.5l8.6,0.5l-8.9-16.2l8.6,0.5
		l-16.2-25.6l-16.9,20.8l10.5,0.7l-13,13.8l10.5,0.7l-14.2,13.3l13,1.2l-15.8,13.9l17.4,0.4l-1.3,17.7L276.6-5771.9z"/>
	<path id="パス_455-2" class="st0" d="M304.9-5775l2.9-16.5l-11.8,1.3l6-10.2l-8.1-0.5l7.8-13.1l-8.1,0.8l7.8-15.7l-8.1,0.8
		l14.4-24.8l16.7,19.1l-9.9,1.1l12.8,12.5l-9.9,1.1l13.9,12l-12.3,1.6l15.4,12.5L318-5792l1.8,16.7L304.9-5775z"/>
</g>
<g id="sun" transform="translate(-71.463 5788.376)">
	<path id="パス_460" class="st0" d="M251.1-5785.9c0.8,0.5-0.4,9.6-0.5,10.8c-0.1,1.9-0.1,3.8-0.2,5.7c-0.1,1.3,0.2,3.3-0.3,4.4
		c-0.5,0-5.3,0.1-5.4-0.4c-0.2-3.3,0.8-7,1.1-10.3c0.5-3.9,0.4-7.8-0.1-11.6C247.7-5787.3,249.5-5786.8,251.1-5785.9"/>
	<path id="パス_461" class="st0" d="M249.3-5743.5c-5.7,0-11.4-0.1-17.1-0.3c-0.4,0-0.7-0.1-1-0.3c-0.2-0.3-0.3-0.7-0.3-1
		c0.1-2.5,1.3-5.1,1.9-7.5c0.6-2.5,2.1-4.8,4.3-6.2c4.3-3,9.7-4.1,14.8-2.9c3.1,0.7,6,2,8.5,4c3.7,3,5.7,9.6,4.7,14.1
		C259.8-5743.5,254.5-5743.5,249.3-5743.5"/>
	<path id="パス_462" class="st0" d="M266.8-5781.8c-2,3.1-3.6,6.4-4.9,9.8c-0.3,0.7-2.8,9-3.6,8.9c-1.8-0.3-3.3-1.7-5.1-2.1
		c2.6-6.1,4.3-12.6,7.4-18.5C262.8-5783.5,264.9-5782.9,266.8-5781.8"/>
	<path id="パス_463" class="st0" d="M279.7-5774.7c-1-1.2-2.4-2.8-3.6-2.4c-0.5,0.2-1.4,1.3-1.7,1.7c-2.7,3.5-6.3,6.3-9.6,9.3
		c-1,1-4,3.4-3.7,4.3c0.8,1.1,1.9,1.9,3.1,2.6c1.2,0.2,2-1.1,2.7-1.9c1.7-1.8,3.5-3.5,5.2-5.3c2.6-2.6,5.1-5.7,8.1-7.8
		C280.1-5774.2,279.9-5774.5,279.7-5774.7"/>
	<path id="パス_464" class="st0" d="M289.4-5761.9c-0.4-1.3-1.2-2.4-2.2-3.1c-0.7-0.3-3.1,0.7-3.9,0.9c-2.2,0.7-4.3,1.6-6.4,2.8
		c-3.3,1.6-6.4,3.5-9.7,5.1c0.8,1.3,1.2,2.8,1.3,4.3c1.7-0.1,3.3-1.2,4.8-1.7c2.1-0.6,4.1-1.3,6.1-2.1c2.5-1.1,4.8-2.5,7.2-3.8
		C287.8-5760.1,289.4-5760.4,289.4-5761.9"/>
	<path id="パス_465" class="st0" d="M238.2-5786.7c-0.2-0.4-0.3-0.8-0.4-1.3c-2.4,0.5-7.5,1.3-7.8,3.6c-0.4,2.1,2.6,5.1,3.2,7.1
		c0.4,1.6,0.9,3.2,1.6,4.8c1.1,2.2,1.5,4.7,2.6,6.8c0.5,1,1.6,1.8,1.6,2.8c1.4-0.3,2.8-0.5,4.2-0.6c1.3,0-1.8-5.7-1.9-6.1
		c-0.9-2.6-0.7-5.7-0.8-8.4c0-1.3-0.2-2.6-0.5-3.9C239.5-5783.6,238.8-5785.1,238.2-5786.7"/>
	<path id="パス_466" class="st0" d="M224.7-5775.9c-1.5-1.9-3.8-3.8-4.9-5.9c-1.7,1.3-2.4,3.5-3.6,5.2c6,4.6,10.6,11.8,15.7,17.3
		c1-0.8,1.9-1.7,2.6-2.7c-1.9-1.5-3-4-4.2-6.1C228.7-5770.8,226.8-5773.4,224.7-5775.9"/>
	<path id="パス_467" class="st0" d="M228.8-5752.5c-1.9-0.7-3.9-0.8-5.8-1.5c-2.7-1-5.3-2-8-2.9c-2.3-0.8-4.6-1.6-6.8-2.5
		c0.3-1.2,1.2-4.3,2.2-5.1c1.6-1.3,5.2,1.3,7,2.2c4.2,1.9,8.6,3.8,12.8,5.7C230.4-5756.6,228.7-5752.6,228.8-5752.5"/>
	<path id="パス_468" class="st0" d="M209.1-5745.7c-0.9,0.1-1.7,0.6-2.6,0.3c-0.2,0,0.1-4.9,0.5-5.2c1-0.8,5.5-0.1,6.8-0.1
		c4.5,0,9.1,0,13.6,0.1c0.2,0,0.4,0,0.6,0.2c0.1,0.2,0.1,0.4,0.1,0.6c-0.1,1.4-0.2,2.7-0.3,4.1c0.1,0.3-0.1,0.7-0.5,0.7
		c-0.1,0-0.2,0-0.3,0C221.3-5745.3,214.9-5746.4,209.1-5745.7"/>
	<path id="パス_469" class="st0" d="M270.3-5744.4c7.4,0.2,14.8,0.1,22.2-0.2c0.3,0.1,0.6-0.1,0.7-0.4c0-0.1,0-0.2,0-0.3
		c-0.2-2-0.4-4-0.6-6c0.1-0.4-0.2-0.7-0.6-0.8c-0.2,0-0.3,0-0.5,0.1c-3.7,0.9-7.4,1.7-11.1,2.3c-3.4,0.6-7.4,0.5-10.6,1.6
		C269.9-5746.9,270.1-5745.6,270.3-5744.4"/>
</g>
<path id="cloud_1_" class="st1" d="M128.4,30.3c9-1.6,19.4,2.4,15.1,12.3c2.8-6.5,9.6-12,17.3-11.7s14.4,8.4,10.9,14.6
	c5.3-5.2,14.6-7.9,21.3-4.2c6.7,3.7,6.8,14.8-0.8,17c5.5-0.3,9.8,5.6,8.4,10.4s-6.7,8.1-12.2,8.9s-11.1-0.4-16.4-1.9l-2.9-5.8
	c-0.8,6.1-7.5,11.2-14.4,10.7s-12.6-6.4-12.3-12.6c-3.2,5.7-10.5,10-17.3,8.3c-3.1-0.8-11.1-13.9-7.6-14.5c-4.1,0.7-8.7,1-12.1-1.3
	c-4.3-2.8-4.6-9-1.3-12.7s8.9-4.9,13.9-4.5C115.1,36.5,121.3,31.6,128.4,30.3"/>
<path id="cloud" class="st1" d="M1125.6,0.3c6.6-1.3,14.4,2,11.2,10.1c2.1-5.3,7.1-9.9,12.8-9.6c5.7,0.3,10.7,6.9,8.1,12
	c3.9-4.3,10.8-6.5,15.8-3.4s5,12.2-0.6,13.9c4.1-0.2,7.2,4.6,6.2,8.6s-5,6.7-9,7.4c-4.1,0.7-8.2-0.3-12.1-1.6l-2.2-4.8
	c-0.6,5.4-5.5,9.4-11,8.7c-5.2-0.6-9-5.1-8.8-10.3c-2.4,4.7-7.8,8.2-12.8,6.8c-2.3-0.7-8.2-11.4-5.7-11.9c-3,0.6-6.5,0.8-8.9-1
	c-3.2-2.3-3.4-7.4-1-10.5s6.6-4,10.3-3.7C1115.7,5.3,1120.3,1.3,1125.6,0.3"/>
<path id="bird_x5F_l" class="st1" d="M42.2,258.2c-0.9-0.7-2.2-0.9-3.2-1.6c-1.9-1.4-3-4.2-5.8-4.2c-3,0-5.4,2.8-8.4,2.9
	c-2.9,0.1-4.4-3.5-6-5.5c-1.6-2-3.3-3.8-5.2-5.5c-0.7-0.6-3.1-4.3-4.5-2.9c-0.9,0.9,1.7,3.4,1.5,4.9c-0.1,0.7-5.1-1.2-5.9,0.2
	c-0.9,1.6,2.5,4.5,1.3,5.4c-0.6,0.5-2.2-0.2-3,0.3c-2.4,1.5,1.3,2.1,1.2,3.7c-2.4,1-5.6,0.4-2.4,3.1c2.8,2.4,0.8,2.9-1.9,3
	c-0.3,1.9,3.2,4.1,4.5,5.2c3.2,2.7,6.2,5.4,10.4,6.4c1.4,0.3,2.8,0.5,4.2,0.6c1.1,2.9,1.9,6.7,4.4,7.3c-0.1-1.5-0.8-2.1-1.3-3.3
	c-0.5-1.3-0.8-2.6-0.9-3.9c0.6,0,1.1,0,1.7-0.1c1.4,2.3,3.4,5.1,4.1,5c-0.5-1.2-0.9-2.5-1.3-3.7c-0.1-0.5-0.2-1-0.3-1.5
	c0.2,0,0.3-0.1,0.5-0.1c1.8-0.4,3.4-1.3,4.8-2.5c1.6-1.4,2.9-3.9,4-5.7c0.3-0.5,0.5-1,0.8-1.5c0.6-1.6,1.5-3.1,2.6-4.5
	C38.7,259.3,41.6,257.8,42.2,258.2 M33.4,257.2c-0.8,0-1.4-0.6-1.4-1.4s0.6-1.4,1.4-1.4s1.4,0.6,1.4,1.4c0,0,0,0,0,0
	C34.8,256.6,34.2,257.2,33.4,257.2"/>
<path id="bird_x5F_r" class="st1" d="M1128.8,256.5c0.9-0.7,2.4-0.9,3.4-1.7c2.1-1.6,3.2-4.5,6.2-4.5c3.2,0,5.7,3,9,3.1
	c3.1,0.1,4.7-3.7,6.4-5.9c1.7-2.1,3.5-4.1,5.6-5.8c0.7-0.6,3.3-4.6,4.8-3.1c1,1-1.8,3.7-1.6,5.3c0.1,0.7,5.5-1.3,6.3,0.2
	c1,1.7-2.7,4.8-1.4,5.8c0.6,0.6,2.4-0.2,3.2,0.3c2.6,1.6-1.4,2.2-1.3,4c2.6,1,6,0.4,2.5,3.4c-3,2.6-0.9,3.1,2,3.3
	c0.3,2-3.4,4.4-4.8,5.6c-3.4,2.9-6.7,5.8-11.1,6.9c-1.5,0.4-3,0.6-4.6,0.6c-1.2,3.1-2.1,7.2-4.7,7.8c0.1-1.6,0.9-2.2,1.4-3.6
	c0.5-1.4,0.8-2.8,1-4.2c-0.6,0-1.2,0-1.8-0.1c-1.5,2.5-3.7,5.5-4.4,5.3c0.5-1.3,1-2.6,1.4-4c0.1-0.5,0.2-1.1,0.3-1.6
	c-0.2,0-0.4-0.1-0.5-0.1c-1.9-0.4-3.7-1.4-5.2-2.6c-1.7-1.5-3.1-4.2-4.3-6.1c-0.3-0.5-0.6-1.1-0.8-1.7c-0.7-1.7-1.6-3.4-2.8-4.8
	C1132.5,257.6,1129.4,256.1,1128.8,256.5 M1138.2,255.5c0.8,0,1.5-0.7,1.5-1.5c0-0.8-0.7-1.5-1.5-1.5c-0.8,0-1.5,0.7-1.5,1.5
	c0,0,0,0,0,0C1136.7,254.8,1137.4,255.5,1138.2,255.5"/>
<g id="flower" transform="translate(640.459 5996.425)">
	<path id="パス_470" class="st0" d="M144.9-5745.9c-0.1,1.7,0.1,6.3-2.6,5.4c-2.2-0.7-2.4-4.5-3.2-6.3c-1.2-2.4-2.5-5.1-2.5-7.8
		c0-3.5,4.2-4.7,6.8-2.4C146.4-5754.4,145.2-5749.4,144.9-5745.9"/>
	<path id="パス_471" class="st0" d="M153.2-5742.8c-1.4,0.9-6.7,5.2-7.1,1.4c-0.3-2.4,2.5-4.8,3.1-7c0.5-1.9,0.7-3.7,1.8-5.3
		c2.7-3.9,9.7,2.6,7.1,6.6C156.8-5745.3,155.1-5743.9,153.2-5742.8"/>
	<path id="パス_472" class="st0" d="M160.7-5734c-3.1,0.7-6.3,0.4-9.3-0.8c-2.3-1-4.4-2.7-1.5-4c3.3-1.5,6.7-3.8,10.6-2.9
		c3.7,0.9,4.8,6,1,7.4C161.3-5734.1,161-5734,160.7-5734"/>
	<path id="パス_473" class="st0" d="M144.5-5739.3c0,0-0.1,0-0.1-0.1c-2.2-1-4.3,1.6-2.4,3.3
		C144.4-5733.8,146.7-5738.1,144.5-5739.3"/>
	<path id="パス_474" class="st0" d="M149.4-5728.5c0.8,1.3,1.7,2.6,2.6,3.8c2.1,2.1,5.4,1,6.8-1.6c1.5-2.8-2.9-4.8-4.8-5.7
		c-1.5-0.9-3-1.6-4.6-2.2C144.7-5735.5,148.5-5729.9,149.4-5728.5"/>
	<path id="パス_475" class="st0" d="M141.5-5728.6c0.2-1.7-0.1-6.3,2.6-5.4c2.1,0.7,2.4,4.5,3.2,6.3c0.7,1.5,2.8,4.4,1.9,6.1
		c-0.7,1.3-2.9,1.4-4.2,1.4c-0.9,0.1-1.9,0.1-2.7-0.3C139.9-5721.9,141.3-5726.4,141.5-5728.6"/>
	<path id="パス_476" class="st0" d="M133.7-5732.8c1.4-0.9,6.7-5.2,7.1-1.4c0.3,2.4-2.5,4.8-3.1,7c-0.7,2.5-2.2,5.9-5.5,4.4
		c-1.7-0.8-3.9-3.2-3.5-5.2C129-5730,132.1-5731.7,133.7-5732.8"/>
	<path id="パス_477" class="st0" d="M125.7-5740.5c2.6-1.2,7.4-0.1,9.3,0.7c2.3,1,4.4,2.7,1.5,4c-2.8,1.3-5.6,3.1-8.8,3.1
		c-3.2,0-4.5-2.9-3.6-6C124.2-5739.5,124.9-5740.2,125.7-5740.5"/>
	<path id="パス_478" class="st0" d="M137-5746c-1.2-1.9-2.7-6.1-5.5-5.8c-1.5,0.3-2.8,1.1-3.7,2.3c-2.4,2.9,2.3,5.9,4.6,7
		c1.5,0.9,3,1.6,4.6,2.2C141.7-5738.9,137.8-5744.6,137-5746"/>
</g>
<g id="flower_1_" transform="translate(100.279 6011.934)">
	<path id="パス_470-2" class="st0" d="M141.8-5747.7c-0.1,1.4,0.1,5.4-2.2,4.6c-1.8-0.6-2-3.9-2.8-5.4c-1-2-2.2-4.4-2.2-6.7
		c0-3,3.6-4,5.8-2.1C143.1-5754.9,142.1-5750.7,141.8-5747.7"/>
	<path id="パス_471-2" class="st0" d="M148.9-5745c-1.2,0.8-5.7,4.5-6.1,1.2c-0.3-2.1,2.2-4.1,2.7-6c0.4-1.6,0.6-3.2,1.5-4.6
		c2.3-3.4,8.3,2.2,6.1,5.6C152-5747.2,150.6-5745.9,148.9-5745"/>
	<path id="パス_472-2" class="st0" d="M155.3-5737.5c-2.7,0.6-5.4,0.3-7.9-0.7c-2-0.9-3.8-2.3-1.3-3.4c2.8-1.3,5.7-3.3,9.1-2.5
		c3.2,0.7,4.1,5.1,0.8,6.4C155.8-5737.6,155.6-5737.5,155.3-5737.5"/>
	<path id="パス_473-2" class="st0" d="M141.5-5742c0,0-0.1,0-0.1-0.1c-1.9-0.9-3.7,1.4-2.1,2.8
		C141.4-5737.3,143.4-5741,141.5-5742"/>
	<path id="パス_474-2" class="st0" d="M145.7-5732.8c0.7,1.2,1.4,2.2,2.3,3.3c1.8,1.8,4.6,0.8,5.8-1.4c1.3-2.4-2.4-4.1-4.1-4.8
		c-1.3-0.7-2.6-1.4-3.9-1.9C141.7-5738.8,144.9-5734,145.7-5732.8"/>
	<path id="パス_475-2" class="st0" d="M138.9-5732.9c0.1-1.4-0.1-5.4,2.2-4.6c1.8,0.6,2,3.9,2.8,5.4c0.6,1.3,2.4,3.7,1.6,5.2
		c-0.6,1.1-2.5,1.2-3.6,1.2c-0.8,0.1-1.6,0.1-2.3-0.2C137.6-5727.2,138.8-5731,138.9-5732.9"/>
	<path id="パス_476-2" class="st0" d="M132.2-5736.5c1.2-0.8,5.7-4.5,6.1-1.2c0.2,2.1-2.2,4.1-2.7,6c-0.6,2.2-1.9,5-4.7,3.7
		c-1.4-0.7-3.3-2.7-3-4.4C128.2-5734.1,130.9-5735.6,132.2-5736.5"/>
	<path id="パス_477-2" class="st0" d="M125.4-5743.1c2.3-1,6.3-0.1,7.9,0.6c2,0.9,3.8,2.3,1.3,3.4c-2.4,1.1-4.8,2.7-7.6,2.7
		c-2.8,0-3.9-2.5-3.1-5.1C124.2-5742.2,124.7-5742.8,125.4-5743.1"/>
	<path id="パス_478-2" class="st0" d="M135.1-5747.8c-1-1.6-2.3-5.2-4.7-5c-1.2,0.3-2.4,1-3.2,2c-2,2.5,1.9,5.1,4,6
		c1.3,0.7,2.6,1.4,3.9,1.9C139.1-5741.7,135.8-5746.5,135.1-5747.8"/>
</g>
<path id="star" class="st0" d="M1281,176.9l0.9-12l6.4,9.2l7.8-0.5l-6.4,7.4l6.4,7.4l-11-2.8l-9.2,6.4l1.4-9.7l-7.4-7.4L1281,176.9z
	"/>
</svg>
