<?xml version="1.0" encoding="utf-8"?>
<svg version="1.1" id="p-kintocamp-course__prezentSVG_SP" xmlns="http://www.w3.org/2000/svg"
	xmlns:xlink="http://www.w3.org/1999/xlink" x="0px" y="0px" viewBox="0 0 370 560"
	style="enable-background:new 0 0 370 560;" xml:space="preserve" class="u-show--sp p-kintocamp-course__prezentSVG">
	<g>
		<g id="sun" class="p-kintocamp-course__prezentSVG_sun">
		<g id="sun" class="p-kintocamp-course__prezentSVG_sun_in">
			<path class="p-kintocamp-course__prezentSVGPath" d="M288.1,410.5c-0.7-0.4-1.5-0.7-2.5-1s-1.9-0.4-2.6-0.4c0.5,2.9,0.5,6.6,0,11.2c0,0.4-0.3,2.1-0.7,5
			c-0.3,2.1-0.5,3.7-0.4,5c0,0.3,1.8,0.5,5.2,0.4c0.2-0.4,0.3-1.1,0.3-2c0-1,0-1.8,0-2.2c0.1-2.5,0.2-4.3,0.2-5.5
			c0.2-2,0.4-3.8,0.5-5.5C288.5,412.3,288.4,410.6,288.1,410.5z" />
			<path class="p-kintocamp-course__prezentSVGPath" d="M300.4,413.2c-1.2-0.4-2.3-0.6-3.1-0.6c-1.2,2.2-2.4,5.2-3.8,8.9c-1.8,4.9-2.9,7.9-3.4,9
			c0.6,0.1,1.4,0.4,2.5,1c1,0.6,1.9,0.9,2.5,1c0.3,0,0.9-1.3,1.9-4c1-2.8,1.5-4.4,1.6-4.6c1.8-4.3,3.3-7.5,4.7-9.5
			C302.5,414,301.6,413.6,300.4,413.2L300.4,413.2z" />
			<path class="p-kintocamp-course__prezentSVGPath" d="M314.1,419.5c-0.7-0.5-1.3-0.7-1.8-0.5c-0.3,0.1-0.9,0.7-1.7,1.7c-1.1,1.4-2.6,3-4.4,4.7
			c-1,1-2.6,2.4-4.8,4.3c-0.3,0.3-1.1,1-2.2,2.1c-1,1-1.4,1.7-1.4,2c0.1,0.2,0.5,0.7,1.4,1.4c0.8,0.7,1.4,1,1.6,1.1
			c0.5,0.1,1-0.1,1.5-0.6c0.5-0.6,0.9-1,1.1-1.2l5.1-5.1c1.7-1.7,2.9-3,3.8-4c1.5-1.6,2.8-2.8,4-3.6l-0.5-0.6
			C315,420.4,314.5,419.8,314.1,419.5L314.1,419.5z" />
			<path class="p-kintocamp-course__prezentSVGPath" d="M319.1,431.5c-1,0.3-2,0.7-3.1,1.2c-1.3,0.6-2.3,1.1-3,1.5c-4.1,2.3-7.3,3.9-9.4,5c0.6,1,1.1,2.4,1.3,4.1
			c0.6-0.1,1.4-0.3,2.4-0.7c1.3-0.6,2.1-0.9,2.3-1c0.7-0.2,1.7-0.5,3-1c1.1-0.4,2.1-0.7,2.9-1.1c1.6-0.7,3.9-2,7-3.6
			c0.8-0.3,1.4-0.6,1.8-0.8c0.6-0.4,1-0.9,1-1.5c0-0.3-0.3-0.9-0.9-1.6s-1-1.2-1.4-1.4c-0.3-0.1-0.9,0-1.9,0.3
			C320,431.3,319.4,431.5,319.1,431.5L319.1,431.5z" />
			<path class="p-kintocamp-course__prezentSVGPath" d="M275.5,411.7c-0.5-1.3-0.8-2-0.8-2.1l-0.3-1.1c-2.4,0.6-3.7,0.9-4,1c-1.7,0.6-2.6,1.3-2.8,2.2
			c-0.1,0.7,0.3,1.8,1.1,3.2c1,1.7,1.5,2.8,1.6,3.1c0.6,2.1,1,3.5,1.4,4.2c0.3,0.6,0.6,1.6,1.1,3.1c0.4,1.3,0.8,2.4,1.1,3
			c0.1,0.1,0.4,0.6,0.9,1.2c0.3,0.5,0.5,0.9,0.5,1.2c0.2,0,0.8-0.1,1.8-0.4c0.7-0.1,1.3-0.2,1.8-0.2s0.4-0.9-0.4-2.6
			c-0.8-1.8-1.3-2.7-1.3-2.9c-0.3-0.9-0.5-2.2-0.5-3.7c0-1.7-0.1-3-0.1-3.8c-0.1-1.8-0.3-3-0.5-3.5
			C276.1,413.3,275.8,412.6,275.5,411.7L275.5,411.7z" />
			<path class="p-kintocamp-course__prezentSVGPath" d="M262.5,420.1c-1.1-1.2-1.9-2.1-2.5-2.8c-1-1.1-1.8-2.1-2.2-3c-0.6,0.5-1.3,1.3-1.9,2.4
			c-0.3,0.6-0.8,1.5-1.5,2.6c2.3,1.8,4.9,4.4,7.9,8c4.7,5.6,7.1,8.5,7.2,8.7c1.4-1.4,2.3-2.2,2.5-2.6c-0.8-0.6-1.5-1.5-2.3-2.7
			c-0.8-1.4-1.4-2.5-1.8-3.1C267.2,426.1,265.3,423.6,262.5,420.1L262.5,420.1z" />
			<path class="p-kintocamp-course__prezentSVGPath" d="M253.2,438.4l7.8,2.9c0.6,0.2,1.5,0.4,2.8,0.8c1.3,0.2,2.2,0.5,2.8,0.7c0,0,0.2-0.7,0.6-2
			c0.5-1.3,0.7-2,0.6-2l-12.4-5.5c-1.4-0.8-2.6-1.4-3.4-1.8c-1.6-0.7-2.7-0.8-3.3-0.2c-0.7,0.5-1.4,2.2-2.1,4.9
			C247.2,436.2,249.4,437,253.2,438.4z" />
			<path class="p-kintocamp-course__prezentSVGPath" d="M265.9,445.2c0-0.3,0-0.4-0.1-0.5s-0.3-0.1-0.5-0.1l-13.1-0.1c-1.4-0.1-2.5-0.2-3.4-0.2
			c-1.7-0.1-2.8,0-3.2,0.3c-0.2,0.1-0.3,1-0.4,2.6s-0.1,2.4,0,2.5c0.4,0.1,0.8,0.2,1.2,0c0.3-0.1,0.7-0.2,1.2-0.3
			c2.2-0.3,5.1-0.3,8.6,0c2,0.1,4.9,0.3,8.7,0.6c0.2,0,0.4,0,0.5-0.1s0.2-0.3,0.2-0.6L265.9,445.2z" />
			<path class="p-kintocamp-course__prezentSVGPath" d="M306.4,448.9c0.1,1.1,0.2,1.7,0.2,1.7c7.4,0.2,14.5,0.1,21.5-0.2c0.3,0,0.5,0,0.5-0.1
			c0.1-0.1,0.2-0.3,0.1-0.6l-0.5-5.8c0-0.3-0.1-0.5-0.2-0.6s-0.4-0.2-0.8-0.1c-3.5,0.9-7.1,1.7-10.8,2.2c-0.4,0.1-2.1,0.3-5.1,0.6
			c-2.2,0.2-3.8,0.6-5,1C306.3,447.2,306.3,447.9,306.4,448.9L306.4,448.9z" />
			<path class="p-kintocamp-course__prezentSVGPath"
				d="M278.9,490.4c0.6,0.5,1.4,0.9,2.3,1.3c1,0.4,1.9,0.7,2.6,0.8c-0.1-2.8,0.4-6.5,1.5-11.1
			c0.1-0.5,0.5-2.1,1.4-4.9c0.6-2,0.9-3.7,1-4.9c0-0.2-0.8-0.4-2.4-0.7c-0.9-0.2-1.8-0.3-2.7-0.4c-0.3,0.4-0.5,1.1-0.6,2
			c-0.1,0.5-0.2,1.2-0.3,2.1c-0.2,1.2-0.6,3-1,5.5c-0.1,0.4-0.5,2.2-1.3,5.4C278.8,488.5,278.6,490.2,278.9,490.4L278.9,490.4z" />
			<path class="p-kintocamp-course__prezentSVGPath" d="M297,437.6c-2.3-1.9-5-3.1-8.2-3.9c-5.1-1.1-9.9-0.2-14.2,2.8c-2,1.4-3.4,3.4-4.1,6c-0.2,0.8-0.6,2-1.1,3.6
			c-0.4,1.5-0.7,2.7-0.7,3.6c0,0.3,0.1,0.6,0.1,0.8c-0.1,2.1,0.3,4.3,1.2,6.4c0.9,2.2,2.1,3.9,3.6,5.1c2.3,1.9,5.1,3.1,8.2,3.9
			c5.1,1.1,9.9,0.2,14.2-2.8c2-1.4,3.4-3.4,4.1-6c0.3-1.2,0.7-2.8,1.1-4.8s0.6-3.1,0.6-3.2c0.1-2.1-0.3-4.3-1.2-6.4
			S298.5,438.8,297,437.6z" />
			<path class="p-kintocamp-course__prezentSVGPath" d="M277,469c-1-0.7-1.7-1.1-2.3-1.3c-0.3-0.1-1.1,1.2-2.5,3.8c-0.7,1.3-1.4,2.7-2.1,4.3c-2.3,4-4.3,6.9-6,8.8
			c0.6,0.5,1.5,1.1,2.7,1.6c1.1,0.5,2.1,0.8,3,1c1.5-2,3.2-4.8,5-8.2c2.6-4.9,4.1-7.7,4.5-8.5C278.7,470.2,278,469.8,277,469
			L277,469z" />
			<path class="p-kintocamp-course__prezentSVGPath" d="M267.5,463c-0.3,0.2-0.8,0.5-1.3,1l-5.7,4.4c-0.1,0-1.5,1.1-4.3,3.4c-1.7,1.4-3.2,2.4-4.5,3l0.4,0.7
			c0.7,1,1.2,1.7,1.4,1.9c0.6,0.6,1.2,0.9,1.7,0.8c0.3,0,0.9-0.5,1.9-1.4c1.3-1.2,3-2.6,5-4l5.4-3.6c1.1-0.7,1.9-1.3,2.5-1.8
			c1.1-0.8,1.7-1.4,1.6-1.8c-0.1-0.3-0.5-0.8-1.1-1.6c-0.7-0.8-1.2-1.2-1.5-1.3C268.6,462.5,268.1,462.7,267.5,463z" />
			<path class="p-kintocamp-course__prezentSVGPath" d="M266.5,459.1c-0.5-1.2-0.8-2.6-0.7-4.2c-0.6,0-1.5,0.1-2.5,0.4c-1.3,0.4-2.1,0.6-2.4,0.6
			c-3.2,0.5-5.2,1-6.1,1.2c-0.2,0-2.6,0.9-7.4,2.6c-0.8,0.2-1.4,0.4-1.8,0.5c-0.7,0.3-1.1,0.7-1.1,1.2c0,0.4,0.2,1,0.6,1.8
			c0.4,0.9,0.8,1.4,1.1,1.5s0.9,0.1,1.9,0c0.5-0.1,1.2-0.2,2-0.4c1-0.1,2.1-0.4,3.3-0.8c0.7-0.2,1.7-0.5,3.1-1
			C258.7,461.9,262.1,460.7,266.5,459.1L266.5,459.1z" />
			<path class="p-kintocamp-course__prezentSVGPath" d="M294.6,471.8c-0.3-0.5-0.4-1-0.4-1.4c-1.6,0.1-2.8,0.1-3.6,0c-0.4-0.1-0.4,0.8,0,2.6c0.2,0.9,0.5,1.9,0.9,3
			c0.2,1,0.2,2.2,0,3.8c-0.1,0.9-0.2,2.1-0.4,3.8c-0.1,1.8-0.1,3,0,3.5c0.1,0.6,0.2,1.4,0.4,2.2c0.1,0.5,0.3,1.2,0.5,2.2l0.1,1.2
			c2.3-0.2,3.7-0.4,4.1-0.5c1.7-0.4,2.7-1,3-1.9c0.2-0.7,0-1.8-0.6-3.3c-0.8-1.8-1.2-3-1.2-3.4c-0.3-2.4-0.6-3.8-0.8-4.4
			c-0.2-0.7-0.4-1.7-0.7-3.2c-0.2-1.4-0.5-2.5-0.7-3.1C295.3,473,295,472.6,294.6,471.8L294.6,471.8z" />
			<path class="p-kintocamp-course__prezentSVGPath" d="M299.5,465.9c-1.6,1.1-2.6,1.8-2.9,2.2c0.7,0.7,1.3,1.7,1.9,3c0,0,0.4,1.1,1.2,3.4c0.7,1.8,2.2,4.5,4.5,8.2
			c0.1,0.1,0.8,1.1,2.1,3.1c0.9,1.3,1.5,2.3,1.8,3.2c0.7-0.4,1.5-1.1,2.2-2c0.8-1.1,1.4-1.9,1.9-2.4c-2-2.1-4.3-5.1-6.7-9
			C301.7,469.3,299.7,466.1,299.5,465.9L299.5,465.9z" />
			<path class="p-kintocamp-course__prezentSVGPath" d="M306.9,461.8c-1.2-0.4-2.1-0.8-2.7-1.1c0,0-0.3,0.6-0.9,1.9c-0.7,1.2-1,1.9-1,2l11.5,7.2
			c0.6,0.4,1.6,1.1,3.2,2.2c1.4,0.9,2.5,1.1,3.2,0.7c0.8-0.5,1.8-2,2.8-4.5c-0.2-0.1-2.3-1.3-6.2-3.4l-7.2-3.9
			C309,462.6,308.1,462.2,306.9,461.8L306.9,461.8z" />
			<path class="p-kintocamp-course__prezentSVGPath" d="M315.8,455.2c-3.8-0.9-6.7-1.5-8.5-1.8c-0.2-0.1-0.3-0.1-0.5,0c-0.1,0.1-0.2,0.3-0.3,0.6l-0.8,3.9
			c-0.1,0.3-0.1,0.5,0,0.5c0.1,0.1,0.3,0.2,0.5,0.2l13,1.9c0.4,0.1,1.6,0.3,3.4,0.8c1.7,0.3,2.8,0.4,3.1,0.1
			c0.2-0.1,0.5-0.9,0.8-2.5c0.4-1.5,0.5-2.3,0.4-2.4c-0.3-0.2-0.8-0.2-1.2-0.1c-0.6,0.1-1,0.1-1.3,0.1
			C322.2,456.3,319.3,455.9,315.8,455.2L315.8,455.2z" />
		</g>
		</g>
		<path id="cloud" class="p-kintocamp-course__prezentSVG_cloud p-kintocamp-course__prezentSVGPath" d="M53.7,50.4c-2.9-2.3-6.7-2.9-11.3-2c-3.5,0.7-6.1,2.4-8,5c-2,2.8-2.4,5.9-1.1,9.4
		c-5.6-0.6-9.8,1.1-12.5,5.1c-1.5,2.1-2.1,4.5-1.9,7.4s1.2,5.1,3.2,6.7c2.4,2,6,2.4,10.7,1.4c-1.5,0.4-1.1,3.1,1.2,8.1
		c2.2,5,4.1,7.7,5.6,8.2c2.9,0.9,5.9,0.4,8.9-1.5c2.8-1.9,5-4.4,6.5-7.7c-0.1,3.4,1,6.6,3.2,9.4s4.8,4.3,7.8,4.6
		c3,0.2,5.8-0.9,8.4-3.3s4-5.3,4.4-8.7l2.6,6.5c6.1,2.1,11,2.7,14.6,2c2.7-0.5,4.9-1.6,6.9-3.3c2.1-1.9,3.4-4.1,4-6.7
		c0.6-2.8,0.2-5.4-1.4-7.9c-1.6-2.6-3.6-3.8-6-3.7c3.3-1.2,5-4.2,5.1-8.8c0.1-4.5-1.4-7.9-4.4-10.1c-2.9-2-6.3-2.4-10-1.4
		c-3.5,0.9-6.5,2.9-8.9,6c1.5-3.4,1.1-7-1.1-10.7c-2.3-3.5-5.2-5.4-8.7-5.6c-3.3-0.1-6.4,1.1-9.3,3.7c-2.7,2.4-4.7,5.5-6,9.1
		C57.8,56.8,57,52.9,53.7,50.4z" />
		<path id="cloud_1_" class="p-kintocamp-course__prezentSVG_cloud2 p-kintocamp-course__prezentSVGPath" d="M328.3,87.2c-1.8-2.7-4.2-4.1-7.1-4.3c-2.8-0.1-5.4,0.8-7.8,2.8c-2.3,1.8-4,4-5.1,6.7
		c1.4-3.6,0.7-6.4-2.1-8.3c-2.5-1.8-5.6-2.3-9.3-1.6c-2.9,0.6-5.1,1.8-6.7,3.7c-1.7,2.1-2,4.5-1,7.1c-4.7-0.5-8.1,0.8-10.4,3.7
		c-1.2,1.6-1.8,3.5-1.6,5.5c0.2,2.2,1,3.9,2.5,5.1c2,1.5,5,1.8,9.1,1c-1.2,0.3-0.9,2.2,0.9,5.9c1.9,3.7,3.5,5.7,4.7,6.1
		c2.5,0.7,4.9,0.3,7.5-1.2c2.5-1.3,4.3-3.2,5.5-5.8c-0.1,2.6,0.8,5,2.5,7c1.8,2.1,4,3.2,6.6,3.5c2.6,0.2,5-0.5,7.1-2.3
		s3.4-4,3.7-6.6l2.2,4.8c4.8,1.5,8.8,2.1,12.2,1.6c2.1-0.4,4-1.2,5.6-2.5c1.8-1.4,3-3,3.5-4.9c0.5-2.1,0.1-4-1.3-5.9
		c-1.3-1.9-3-2.8-5.1-2.8c2.8-0.8,4.2-3,4.3-6.4c0.2-3.5-1.1-6-3.7-7.6c-2.4-1.5-5.1-1.8-8.3-1c-2.9,0.8-5.4,2.3-7.6,4.5
		C330.5,92.6,330.2,90,328.3,87.2L328.3,87.2z" />
		<path id="bird" class="p-kintocamp-course__prezentSVG_bird p-kintocamp-course__prezentSVGPath" d="M98.5,530.2c-1.9,1.1-3.4,1.6-4.5,1.7c-1.3,0-2.6-0.7-3.8-2.1c-1.2-1.8-2.1-3.1-2.7-3.8
		c-1.7-2.1-3.5-4.1-5.5-5.8c-0.8-1-1.5-1.8-2.2-2.3c-1.2-1.1-2.1-1.4-2.7-0.8c-0.4,0.4-0.2,1.2,0.5,2.4c0.8,1.4,1.2,2.4,1.1,2.8
		c0,0.2-1,0.1-2.9-0.2c-2-0.3-3.1-0.2-3.4,0.3c-0.3,0.6-0.1,1.7,0.8,3.2c0.8,1.4,1.1,2.3,0.7,2.7c-0.2,0.2-0.7,0.2-1.5,0.2
		c-0.9-0.1-1.4-0.1-1.7,0.1c-1,0.6-1.1,1.2-0.3,2c1.1,0.9,1.6,1.6,1.6,2c-1.9,0.4-3,0.7-3.5,1c-0.8,0.4-0.5,1.2,1,2.4
		c1.4,1.2,1.8,2,1.2,2.5c-0.4,0.4-1.5,0.6-3.2,0.7c-0.1,0.8,0.5,1.9,1.8,3.1c0.7,0.7,1.8,1.5,3.1,2.5c2.4,2.1,4.2,3.4,5.2,4.1
		c2,1.4,4,2.3,6,2.8c1.4,0.3,2.9,0.6,4.5,0.7c0.4,1,1,2.7,1.8,4.8c0.8,1.7,1.8,2.7,2.8,3c0-0.6-0.2-1.2-0.6-1.8l-0.8-1.7
		c-0.5-1.3-0.8-2.7-0.9-4.2h1.8c0.9,1.4,1.7,2.7,2.5,3.7c0.9,1.2,1.5,1.8,1.9,1.7c-0.6-1.6-1.1-2.9-1.3-4c0-0.1-0.1-0.7-0.3-1.6
		l0.6-0.1c1.7-0.3,3.4-1.2,5.2-2.7c0.7-0.6,1.5-1.5,2.3-2.8c0.9-1.5,1.5-2.6,1.9-3.2l0.8-1.7c1-2.4,2-4,2.8-4.8
		c0.3-0.3,1-0.7,2.1-1.2c1.2-0.5,1.9-0.6,2.2-0.4c-0.3-0.2-0.9-0.5-1.7-0.8s-1.4-0.6-1.8-0.9c-1.2-1.3-2.2-2.2-2.8-2.8
		c-1.1-1.1-2.3-1.7-3.5-1.7C101.8,528.7,100.4,529.2,98.5,530.2 M102.1,533.5c-0.3-0.3-0.4-0.7-0.4-1.1s0.1-0.8,0.4-1
		c0.3-0.3,0.6-0.5,1.1-0.5s0.8,0.1,1.1,0.5c0.3,0.3,0.4,0.7,0.4,1c0,0.4-0.2,0.8-0.4,1.1c-0.3,0.3-0.6,0.5-1.1,0.5
		S102.4,533.8,102.1,533.5z" />
		<path id="tree" class="p-kintocamp-course__prezentSVG_tree p-kintocamp-course__prezentSVGPath" d="M143.5,507.4l7.8-0.3l-16.8-21.8l-13.4,20.3l9.6-0.3l-10.6,13.5l9.6-0.3L118,531.9l11.9-0.1
		l-13.1,13.8l15.8-1.1l0.4,16.1l14.2-1.6l-4.9-15.3l11.3-0.3l-7-8.9l7.7-1.6l-9.1-11.4l7.7-0.3L143.5,507.4z" />
		<path id="tree2" class="p-kintocamp-course__prezentSVG_tree p-kintocamp-course__prezentSVGPath" d="M159.9,547.6l17.8,0.4l-1.3,18.1l16.1-0.3l-3.7-17.6l12.7,0.9l-6.9-10.8l8.7-0.9l-9-13.7l8.8,0.5
		l-9.1-16.6l8.8,0.5L186.1,482l-17.3,21.3l10.8,0.7l-13.3,14l10.8,0.7l-14.5,13.5l13.3,1.2L159.9,547.6z" />
		<path id="tree3" class="p-kintocamp-course__prezentSVG_tree p-kintocamp-course__prezentSVGPath" d="M234.2,517.6l10.1-1l-13.1-12.8l10.1-1l-17.1-19.5l-14.6,25.4l8.3-0.9l-8,16l8.3-0.8l-8,13.3
		l8.3,0.5l-6.1,10.4l12-1.3l-3,16.8l15.2-0.3l-1.9-17.1l16.8-1.1l-15.7-12.7l12.5-1.6L234.2,517.6z" />
		<g id="flower" class="p-kintocamp-course__prezentSVG_flower">
			<path class="p-kintocamp-course__prezentSVGPath" d="M315.6,530c-0.1-2.4-0.8-4.2-2.1-5.4s-2.8-1.5-4.5-1c-1.7,0.6-2.5,1.7-2.5,3.5c0,1.2,0.3,2.6,0.9,4.1
			c0.3,0.9,0.9,2.2,1.8,3.9c0.3,0.6,0.7,1.8,1.1,3.6c0.5,1.6,1.2,2.5,2.1,2.9c1.2,0.4,2-0.2,2.4-1.8c0-0.2,0.1-1.5,0.4-3.8
			C315.4,532.2,315.6,530.2,315.6,530L315.6,530z" />
			<path class="p-kintocamp-course__prezentSVGPath" d="M319.5,533.5c-0.1,0.5-0.8,1.7-1.9,3.5c-0.9,1.5-1.4,2.8-1.2,3.7c0.2,1.7,1.3,2,3.3,1.1
			c0.1-0.1,1.5-0.9,4-2.5c2.6-1.7,4.3-3.2,5.1-4.5c1.3-2.1,0.8-4.2-1.6-6.5s-4.3-2.4-5.8-0.4c-0.5,0.7-0.9,1.6-1.1,2.6
			C320.1,531.3,319.8,532.2,319.5,533.5L319.5,533.5z" />
			<path class="p-kintocamp-course__prezentSVGPath" d="M331.3,548.4l0.9-0.2c1.9-0.7,2.7-2.1,2.4-4c-0.3-2-1.5-3.2-3.4-3.6c-1.7-0.4-3.7-0.2-5.8,0.5
			c-2.3,1.1-4.1,1.9-5.2,2.4c-1.4,0.6-1.8,1.4-1.2,2.2c0.4,0.7,1.3,1.3,2.8,2c1.3,0.6,2.9,1,4.7,1.1
			C328.3,548.8,329.9,548.7,331.3,548.4L331.3,548.4z" />
			<path class="p-kintocamp-course__prezentSVGPath" d="M315.2,545.9c0.9-1.3,0.7-2.3-0.5-3l-0.2-0.1c-1.1-0.5-2.1-0.3-2.8,0.7s-0.6,1.9,0.3,2.8
			C313.3,547.3,314.3,547.2,315.2,545.9z" />
			<path class="p-kintocamp-course__prezentSVGPath" d="M317.6,550c0.3,0.8,1,2.1,2.1,4c1.5,2.4,2.4,3.7,2.7,4c1,1,2.3,1.3,3.8,1c1.4-0.4,2.5-1.3,3.2-2.7
			c0.7-1.3,0.3-2.5-1.2-3.6c-0.8-0.6-2-1.4-3.8-2.2c-0.2-0.1-1-0.5-2.3-1.2c-0.9-0.5-1.7-0.9-2.4-1C317.7,547.5,317,548.1,317.6,550
			L317.6,550z" />
			<path class="p-kintocamp-course__prezentSVGPath" d="M319.2,557.9c-0.8-1.5-1.3-2.5-1.6-3c-0.5-1.5-0.9-2.7-1.1-3.6c-0.5-1.6-1.2-2.5-2.2-2.8
			c-1.2-0.4-1.9,0.2-2.3,1.8c-0.1,0.2-0.2,1.4-0.4,3.8c-0.1,0.7-0.3,2.2-0.6,4.5c-0.1,2,0.4,3.3,1.4,4c0.3,0.2,0.8,0.3,1.4,0.3h1.4
			c2.3,0,3.8-0.5,4.3-1.5S319.8,559.3,319.2,557.9L319.2,557.9z" />
			<path class="p-kintocamp-course__prezentSVGPath" d="M298.4,554.5c-0.2,1,0.2,2,1.1,3.2c0.8,1,1.6,1.8,2.5,2.2c2.6,1.2,4.5-0.3,5.6-4.5c0.1-0.5,0.8-1.7,2-3.5
			c0.9-1.5,1.4-2.8,1.2-3.7c-0.2-1.6-1.3-2-3.4-1c-0.2,0.1-1.5,0.9-4,2.5c-1.8,1.2-2.8,1.9-3,2.1
			C299.3,552.7,298.6,553.6,298.4,554.5L298.4,554.5z" />
			<path class="p-kintocamp-course__prezentSVGPath" d="M304.9,542.4c-1.2-0.5-2.7-0.9-4.4-1.2c-2.2-0.3-3.9-0.1-5.1,0.4c-0.9,0.4-1.5,1.1-1.8,2
			c-0.4,1.7-0.3,3.1,0.4,4.3s1.9,1.8,3.4,1.8c1.4,0,3-0.3,4.7-1c1-0.4,2.5-1.2,4.4-2.1c1.4-0.6,1.8-1.3,1.2-2.2
			C307.3,543.7,306.4,543,304.9,542.4L304.9,542.4z" />
			<path class="p-kintocamp-course__prezentSVGPath" d="M309.1,540c-0.3-0.8-1-2.1-2.1-4c-0.9-1.7-1.6-3-2.2-3.8c-1.1-1.6-2.3-2.3-3.5-2.2c-0.6,0-1.3,0.3-2.1,0.9
			c-0.7,0.5-1.3,1-1.7,1.5c-1.1,1.3-0.9,2.8,0.5,4.3c1,1.1,2.4,2.1,4.2,2.9c0.2,0.1,1,0.5,2.3,1.2c0.9,0.5,1.7,0.9,2.4,1
			C309,542.4,309.7,541.8,309.1,540L309.1,540z" />
		</g>
	</g>
</svg>