<svg enable-background="new 0 0 370 560" viewBox="0 0 370 560" xmlns="http://www.w3.org/2000/svg"><g fill="#88b83e"><g transform="translate(-188.15 -388.4)"><path d="m288.1 410.5c-.7-.4-1.5-.7-2.5-1s-1.9-.4-2.6-.4c.5 2.9.5 6.6 0 11.2 0 .4-.3 2.1-.7 5-.3 2.1-.5 3.7-.4 5 0 .3 1.8.5 5.2.4.2-.4.3-1.1.3-2 0-1 0-1.8 0-2.2.1-2.5.2-4.3.2-5.5.2-2 .4-3.8.5-5.5.4-3.2.3-4.9 0-5z"/><path d="m300.4 413.2c-1.2-.4-2.3-.6-3.1-.6-1.2 2.2-2.4 5.2-3.8 8.9-1.8 4.9-2.9 7.9-3.4 9 .6.1 1.4.4 2.5 1 1 .6 1.9.9 2.5 1 .3 0 .9-1.3 1.9-4 1-2.8 1.5-4.4 1.6-4.6 1.8-4.3 3.3-7.5 4.7-9.5-.8-.4-1.7-.8-2.9-1.2z"/><path d="m314.1 419.5c-.7-.5-1.3-.7-1.8-.5-.3.1-.9.7-1.7 1.7-1.1 1.4-2.6 3-4.4 4.7-1 1-2.6 2.4-4.8 4.3-.3.3-1.1 1-2.2 2.1-1 1-1.4 1.7-1.4 2 .1.2.5.7 1.4 1.4.8.7 1.4 1 1.6 1.1.5.1 1-.1 1.5-.6.5-.6.9-1 1.1-1.2l5.1-5.1c1.7-1.7 2.9-3 3.8-4 1.5-1.6 2.8-2.8 4-3.6l-.5-.6c-.8-.8-1.3-1.4-1.7-1.7z"/><path d="m319.1 431.5c-1 .3-2 .7-3.1 1.2-1.3.6-2.3 1.1-3 1.5-4.1 2.3-7.3 3.9-9.4 5 .6 1 1.1 2.4 1.3 4.1.6-.1 1.4-.3 2.4-.7 1.3-.6 2.1-.9 2.3-1 .7-.2 1.7-.5 3-1 1.1-.4 2.1-.7 2.9-1.1 1.6-.7 3.9-2 7-3.6.8-.3 1.4-.6 1.8-.8.6-.4 1-.9 1-1.5 0-.3-.3-.9-.9-1.6s-1-1.2-1.4-1.4c-.3-.1-.9 0-1.9.3-1.1.4-1.7.6-2 .6z"/><path d="m275.5 411.7c-.5-1.3-.8-2-.8-2.1l-.3-1.1c-2.4.6-3.7.9-4 1-1.7.6-2.6 1.3-2.8 2.2-.1.7.3 1.8 1.1 3.2 1 1.7 1.5 2.8 1.6 3.1.6 2.1 1 3.5 1.4 4.2.3.6.6 1.6 1.1 3.1.4 1.3.8 2.4 1.1 3 .1.1.4.6.9 1.2.3.5.5.9.5 1.2.2 0 .8-.1 1.8-.4.7-.1 1.3-.2 1.8-.2s.4-.9-.4-2.6c-.8-1.8-1.3-2.7-1.3-2.9-.3-.9-.5-2.2-.5-3.7 0-1.7-.1-3-.1-3.8-.1-1.8-.3-3-.5-3.5 0-.3-.3-1-.6-1.9z"/><path d="m262.5 420.1c-1.1-1.2-1.9-2.1-2.5-2.8-1-1.1-1.8-2.1-2.2-3-.6.5-1.3 1.3-1.9 2.4-.3.6-.8 1.5-1.5 2.6 2.3 1.8 4.9 4.4 7.9 8 4.7 5.6 7.1 8.5 7.2 8.7 1.4-1.4 2.3-2.2 2.5-2.6-.8-.6-1.5-1.5-2.3-2.7-.8-1.4-1.4-2.5-1.8-3.1-.7-1.5-2.6-4-5.4-7.5z"/><path d="m253.2 438.4 7.8 2.9c.6.2 1.5.4 2.8.8 1.3.2 2.2.5 2.8.7 0 0 .2-.7.6-2 .5-1.3.7-2 .6-2l-12.4-5.5c-1.4-.8-2.6-1.4-3.4-1.8-1.6-.7-2.7-.8-3.3-.2-.7.5-1.4 2.2-2.1 4.9.6 0 2.8.8 6.6 2.2z"/><path d="m265.9 445.2c0-.3 0-.4-.1-.5s-.3-.1-.5-.1l-13.1-.1c-1.4-.1-2.5-.2-3.4-.2-1.7-.1-2.8 0-3.2.3-.2.1-.3 1-.4 2.6s-.1 2.4 0 2.5c.4.1.8.2 1.2 0 .3-.1.7-.2 1.2-.3 2.2-.3 5.1-.3 8.6 0 2 .1 4.9.3 8.7.6.2 0 .4 0 .5-.1s.2-.3.2-.6z"/><path d="m306.4 448.9c.1 1.1.2 1.7.2 1.7 7.4.2 14.5.1 21.5-.2.3 0 .5 0 .5-.1.1-.1.2-.3.1-.6l-.5-5.8c0-.3-.1-.5-.2-.6s-.4-.2-.8-.1c-3.5.9-7.1 1.7-10.8 2.2-.4.1-2.1.3-5.1.6-2.2.2-3.8.6-5 1 0 .2 0 .9.1 1.9z"/><path d="m278.9 490.4c.6.5 1.4.9 2.3 1.3 1 .4 1.9.7 2.6.8-.1-2.8.4-6.5 1.5-11.1.1-.5.5-2.1 1.4-4.9.6-2 .9-3.7 1-4.9 0-.2-.8-.4-2.4-.7-.9-.2-1.8-.3-2.7-.4-.3.4-.5 1.1-.6 2-.1.5-.2 1.2-.3 2.1-.2 1.2-.6 3-1 5.5-.1.4-.5 2.2-1.3 5.4-.6 3-.8 4.7-.5 4.9z"/><path d="m297 437.6c-2.3-1.9-5-3.1-8.2-3.9-5.1-1.1-9.9-.2-14.2 2.8-2 1.4-3.4 3.4-4.1 6-.2.8-.6 2-1.1 3.6-.4 1.5-.7 2.7-.7 3.6 0 .3.1.6.1.8-.1 2.1.3 4.3 1.2 6.4.9 2.2 2.1 3.9 3.6 5.1 2.3 1.9 5.1 3.1 8.2 3.9 5.1 1.1 9.9.2 14.2-2.8 2-1.4 3.4-3.4 4.1-6 .3-1.2.7-2.8 1.1-4.8s.6-3.1.6-3.2c.1-2.1-.3-4.3-1.2-6.4s-2.1-3.9-3.6-5.1z"/><path d="m277 469c-1-.7-1.7-1.1-2.3-1.3-.3-.1-1.1 1.2-2.5 3.8-.7 1.3-1.4 2.7-2.1 4.3-2.3 4-4.3 6.9-6 8.8.6.5 1.5 1.1 2.7 1.6 1.1.5 2.1.8 3 1 1.5-2 3.2-4.8 5-8.2 2.6-4.9 4.1-7.7 4.5-8.5-.6-.3-1.3-.7-2.3-1.5z"/><path d="m267.5 463c-.3.2-.8.5-1.3 1l-5.7 4.4c-.1 0-1.5 1.1-4.3 3.4-1.7 1.4-3.2 2.4-4.5 3l.4.7c.7 1 1.2 1.7 1.4 1.9.6.6 1.2.9 1.7.8.3 0 .9-.5 1.9-1.4 1.3-1.2 3-2.6 5-4l5.4-3.6c1.1-.7 1.9-1.3 2.5-1.8 1.1-.8 1.7-1.4 1.6-1.8-.1-.3-.5-.8-1.1-1.6-.7-.8-1.2-1.2-1.5-1.3-.4-.2-.9 0-1.5.3z"/><path d="m266.5 459.1c-.5-1.2-.8-2.6-.7-4.2-.6 0-1.5.1-2.5.4-1.3.4-2.1.6-2.4.6-3.2.5-5.2 1-6.1 1.2-.2 0-2.6.9-7.4 2.6-.8.2-1.4.4-1.8.5-.7.3-1.1.7-1.1 1.2 0 .4.2 1 .6 1.8.4.9.8 1.4 1.1 1.5s.9.1 1.9 0c.5-.1 1.2-.2 2-.4 1-.1 2.1-.4 3.3-.8.7-.2 1.7-.5 3.1-1 2.2-.6 5.6-1.8 10-3.4z"/><path d="m294.6 471.8c-.3-.5-.4-1-.4-1.4-1.6.1-2.8.1-3.6 0-.4-.1-.4.8 0 2.6.2.9.5 1.9.9 3 .2 1 .2 2.2 0 3.8-.1.9-.2 2.1-.4 3.8-.1 1.8-.1 3 0 3.5.1.6.2 1.4.4 2.2.1.5.3 1.2.5 2.2l.1 1.2c2.3-.2 3.7-.4 4.1-.5 1.7-.4 2.7-1 3-1.9.2-.7 0-1.8-.6-3.3-.8-1.8-1.2-3-1.2-3.4-.3-2.4-.6-3.8-.8-4.4-.2-.7-.4-1.7-.7-3.2-.2-1.4-.5-2.5-.7-3.1.1.1-.2-.3-.6-1.1z"/><path d="m299.5 465.9c-1.6 1.1-2.6 1.8-2.9 2.2.7.7 1.3 1.7 1.9 3 0 0 .4 1.1 1.2 3.4.7 1.8 2.2 4.5 4.5 8.2.1.1.8 1.1 2.1 3.1.9 1.3 1.5 2.3 1.8 3.2.7-.4 1.5-1.1 2.2-2 .8-1.1 1.4-1.9 1.9-2.4-2-2.1-4.3-5.1-6.7-9-3.8-6.3-5.8-9.5-6-9.7z"/><path d="m306.9 461.8c-1.2-.4-2.1-.8-2.7-1.1 0 0-.3.6-.9 1.9-.7 1.2-1 1.9-1 2l11.5 7.2c.6.4 1.6 1.1 3.2 2.2 1.4.9 2.5 1.1 3.2.7.8-.5 1.8-2 2.8-4.5-.2-.1-2.3-1.3-6.2-3.4l-7.2-3.9c-.6-.3-1.5-.7-2.7-1.1z"/><path d="m315.8 455.2c-3.8-.9-6.7-1.5-8.5-1.8-.2-.1-.3-.1-.5 0-.1.1-.2.3-.3.6l-.8 3.9c-.1.3-.1.5 0 .5.1.1.3.2.5.2l13 1.9c.4.1 1.6.3 3.4.8 1.7.3 2.8.4 3.1.1.2-.1.5-.9.8-2.5.4-1.5.5-2.3.4-2.4-.3-.2-.8-.2-1.2-.1-.6.1-1 .1-1.3.1-2.2-.2-5.1-.6-8.6-1.3z"/></g><path d="m53.7 50.4c-2.9-2.3-6.7-2.9-11.3-2-3.5.7-6.1 2.4-8 5-2 2.8-2.4 5.9-1.1 9.4-5.6-.6-9.8 1.1-12.5 5.1-1.5 2.1-2.1 4.5-1.9 7.4s1.2 5.1 3.2 6.7c2.4 2 6 2.4 10.7 1.4-1.5.4-1.1 3.1 1.2 8.1 2.2 5 4.1 7.7 5.6 8.2 2.9.9 5.9.4 8.9-1.5 2.8-1.9 5-4.4 6.5-7.7-.1 3.4 1 6.6 3.2 9.4s4.8 4.3 7.8 4.6c3 .2 5.8-.9 8.4-3.3s4-5.3 4.4-8.7l2.6 6.5c6.1 2.1 11 2.7 14.6 2 2.7-.5 4.9-1.6 6.9-3.3 2.1-1.9 3.4-4.1 4-6.7.6-2.8.2-5.4-1.4-7.9-1.6-2.6-3.6-3.8-6-3.7 3.3-1.2 5-4.2 5.1-8.8.1-4.5-1.4-7.9-4.4-10.1-2.9-2-6.3-2.4-10-1.4-3.5.9-6.5 2.9-8.9 6 1.5-3.4 1.1-7-1.1-10.7-2.3-3.5-5.2-5.4-8.7-5.6-3.3-.1-6.4 1.1-9.3 3.7-2.7 2.4-4.7 5.5-6 9.1 1.6-4.8.8-8.7-2.5-11.2z"/><path d="m328.3 87.2c-1.8-2.7-4.2-4.1-7.1-4.3-2.8-.1-5.4.8-7.8 2.8-2.3 1.8-4 4-5.1 6.7 1.4-3.6.7-6.4-2.1-8.3-2.5-1.8-5.6-2.3-9.3-1.6-2.9.6-5.1 1.8-6.7 3.7-1.7 2.1-2 4.5-1 7.1-4.7-.5-8.1.8-10.4 3.7-1.2 1.6-1.8 3.5-1.6 5.5.2 2.2 1 3.9 2.5 5.1 2 1.5 5 1.8 9.1 1-1.2.3-.9 2.2.9 5.9 1.9 3.7 3.5 5.7 4.7 6.1 2.5.7 4.9.3 7.5-1.2 2.5-1.3 4.3-3.2 5.5-5.8-.1 2.6.8 5 2.5 7 1.8 2.1 4 3.2 6.6 3.5 2.6.2 5-.5 7.1-2.3s3.4-4 3.7-6.6l2.2 4.8c4.8 1.5 8.8 2.1 12.2 1.6 2.1-.4 4-1.2 5.6-2.5 1.8-1.4 3-3 3.5-4.9.5-2.1.1-4-1.3-5.9-1.3-1.9-3-2.8-5.1-2.8 2.8-.8 4.2-3 4.3-6.4.2-3.5-1.1-6-3.7-7.6-2.4-1.5-5.1-1.8-8.3-1-2.9.8-5.4 2.3-7.6 4.5 1.4-2.4 1.1-5-.8-7.8z"/><path d="m98.5 530.2c-1.9 1.1-3.4 1.6-4.5 1.7-1.3 0-2.6-.7-3.8-2.1-1.2-1.8-2.1-3.1-2.7-3.8-1.7-2.1-3.5-4.1-5.5-5.8-.8-1-1.5-1.8-2.2-2.3-1.2-1.1-2.1-1.4-2.7-.8-.4.4-.2 1.2.5 2.4.8 1.4 1.2 2.4 1.1 2.8 0 .2-1 .1-2.9-.2-2-.3-3.1-.2-3.4.3-.3.6-.1 1.7.8 3.2.8 1.4 1.1 2.3.7 2.7-.2.2-.7.2-1.5.2-.9-.1-1.4-.1-1.7.1-1 .6-1.1 1.2-.3 2 1.1.9 1.6 1.6 1.6 2-1.9.4-3 .7-3.5 1-.8.4-.5 1.2 1 2.4 1.4 1.2 1.8 2 1.2 2.5-.4.4-1.5.6-3.2.7-.1.8.5 1.9 1.8 3.1.7.7 1.8 1.5 3.1 2.5 2.4 2.1 4.2 3.4 5.2 4.1 2 1.4 4 2.3 6 2.8 1.4.3 2.9.6 4.5.7.4 1 1 2.7 1.8 4.8.8 1.7 1.8 2.7 2.8 3 0-.6-.2-1.2-.6-1.8l-.8-1.7c-.5-1.3-.8-2.7-.9-4.2h1.8c.9 1.4 1.7 2.7 2.5 3.7.9 1.2 1.5 1.8 1.9 1.7-.6-1.6-1.1-2.9-1.3-4 0-.1-.1-.7-.3-1.6l.6-.1c1.7-.3 3.4-1.2 5.2-2.7.7-.6 1.5-1.5 2.3-2.8.9-1.5 1.5-2.6 1.9-3.2l.8-1.7c1-2.4 2-4 2.8-4.8.3-.3 1-.7 2.1-1.2 1.2-.5 1.9-.6 2.2-.4-.3-.2-.9-.5-1.7-.8s-1.4-.6-1.8-.9c-1.2-1.3-2.2-2.2-2.8-2.8-1.1-1.1-2.3-1.7-3.5-1.7-1.3-.5-2.7 0-4.6 1m3.6 3.3c-.3-.3-.4-.7-.4-1.1s.1-.8.4-1c.3-.3.6-.5 1.1-.5s.8.1 1.1.5c.3.3.4.7.4 1 0 .4-.2.8-.4 1.1-.3.3-.6.5-1.1.5s-.8-.2-1.1-.5z"/><path d="m143.5 507.4 7.8-.3-16.8-21.8-13.4 20.3 9.6-.3-10.6 13.5 9.6-.3-11.7 13.4 11.9-.1-13.1 13.8 15.8-1.1.4 16.1 14.2-1.6-4.9-15.3 11.3-.3-7-8.9 7.7-1.6-9.1-11.4 7.7-.3z"/><path d="m159.9 547.6 17.8.4-1.3 18.1 16.1-.3-3.7-17.6 12.7.9-6.9-10.8 8.7-.9-9-13.7 8.8.5-9.1-16.6 8.8.5-16.7-26.1-17.3 21.3 10.8.7-13.3 14 10.8.7-14.5 13.5 13.3 1.2z"/><path d="m234.2 517.6 10.1-1-13.1-12.8 10.1-1-17.1-19.5-14.6 25.4 8.3-.9-8 16 8.3-.8-8 13.3 8.3.5-6.1 10.4 12-1.3-3 16.8 15.2-.3-1.9-17.1 16.8-1.1-15.7-12.7 12.5-1.6z"/><path d="m315.6 530c-.1-2.4-.8-4.2-2.1-5.4s-2.8-1.5-4.5-1c-1.7.6-2.5 1.7-2.5 3.5 0 1.2.3 2.6.9 4.1.3.9.9 2.2 1.8 3.9.3.6.7 1.8 1.1 3.6.5 1.6 1.2 2.5 2.1 2.9 1.2.4 2-.2 2.4-1.8 0-.2.1-1.5.4-3.8.2-3.8.4-5.8.4-6z"/><path d="m319.5 533.5c-.1.5-.8 1.7-1.9 3.5-.9 1.5-1.4 2.8-1.2 3.7.2 1.7 1.3 2 3.3 1.1.1-.1 1.5-.9 4-2.5 2.6-1.7 4.3-3.2 5.1-4.5 1.3-2.1.8-4.2-1.6-6.5s-4.3-2.4-5.8-.4c-.5.7-.9 1.6-1.1 2.6-.2.8-.5 1.7-.8 3z"/><path d="m331.3 548.4.9-.2c1.9-.7 2.7-2.1 2.4-4-.3-2-1.5-3.2-3.4-3.6-1.7-.4-3.7-.2-5.8.5-2.3 1.1-4.1 1.9-5.2 2.4-1.4.6-1.8 1.4-1.2 2.2.4.7 1.3 1.3 2.8 2 1.3.6 2.9 1 4.7 1.1 1.8 0 3.4-.1 4.8-.4z"/><path d="m315.2 545.9c.9-1.3.7-2.3-.5-3l-.2-.1c-1.1-.5-2.1-.3-2.8.7s-.6 1.9.3 2.8c1.3 1 2.3.9 3.2-.4z"/><path d="m317.6 550c.3.8 1 2.1 2.1 4 1.5 2.4 2.4 3.7 2.7 4 1 1 2.3 1.3 3.8 1 1.4-.4 2.5-1.3 3.2-2.7.7-1.3.3-2.5-1.2-3.6-.8-.6-2-1.4-3.8-2.2-.2-.1-1-.5-2.3-1.2-.9-.5-1.7-.9-2.4-1-2-.8-2.7-.2-2.1 1.7z"/><path d="m319.2 557.9c-.8-1.5-1.3-2.5-1.6-3-.5-1.5-.9-2.7-1.1-3.6-.5-1.6-1.2-2.5-2.2-2.8-1.2-.4-1.9.2-2.3 1.8-.1.2-.2 1.4-.4 3.8-.1.7-.3 2.2-.6 4.5-.1 2 .4 3.3 1.4 4 .3.2.8.3 1.4.3h1.4c2.3 0 3.8-.5 4.3-1.5s.3-2.1-.3-3.5z"/><path d="m298.4 554.5c-.2 1 .2 2 1.1 3.2.8 1 1.6 1.8 2.5 2.2 2.6 1.2 4.5-.3 5.6-4.5.1-.5.8-1.7 2-3.5.9-1.5 1.4-2.8 1.2-3.7-.2-1.6-1.3-2-3.4-1-.2.1-1.5.9-4 2.5-1.8 1.2-2.8 1.9-3 2.1-1.1.9-1.8 1.8-2 2.7z"/><path d="m304.9 542.4c-1.2-.5-2.7-.9-4.4-1.2-2.2-.3-3.9-.1-5.1.4-.9.4-1.5 1.1-1.8 2-.4 1.7-.3 3.1.4 4.3s1.9 1.8 3.4 1.8c1.4 0 3-.3 4.7-1 1-.4 2.5-1.2 4.4-2.1 1.4-.6 1.8-1.3 1.2-2.2-.4-.7-1.3-1.4-2.8-2z"/><path d="m309.1 540c-.3-.8-1-2.1-2.1-4-.9-1.7-1.6-3-2.2-3.8-1.1-1.6-2.3-2.3-3.5-2.2-.6 0-1.3.3-2.1.9-.7.5-1.3 1-1.7 1.5-1.1 1.3-.9 2.8.5 4.3 1 1.1 2.4 2.1 4.2 2.9.2.1 1 .5 2.3 1.2.9.5 1.7.9 2.4 1 2.1.6 2.8 0 2.2-1.8z"/></g></svg>