<svg xmlns="http://www.w3.org/2000/svg" class="p-kintocamp-mainVisual__svg" width="818.28" height="93.24" viewBox="0 0 818.28 93.24">
  <g id="kintcam" transform="translate(-3144.227 538.526)">
    <path id="kintocamp" d="M-386.46,0h-18.96V-87.72h18.96v36.6l34.2-36.6h23.52l-36.12,37.2L-327.18,0h-23.28l-27.48-37.32-8.52,8.88Zm73.32,0V-87.72h18.96V0Zm59.16,0h-18.84V-90.48l60.48,53.52V-87.6h18.96V2.76l-60.6-52.68Zm117.24-71.28V0h-19.08V-71.28h-25.56V-87.72h70.08v16.44ZM-58.98,1.68A47.127,47.127,0,0,1-82.62-4.44,46.542,46.542,0,0,1-99.78-21.06a43.316,43.316,0,0,1-6.36-22.86,43.1,43.1,0,0,1,6.36-22.74A46.542,46.542,0,0,1-82.62-83.28,47.127,47.127,0,0,1-58.98-89.4a47.789,47.789,0,0,1,23.76,6.12A46.28,46.28,0,0,1-17.94-66.66a43.1,43.1,0,0,1,6.36,22.74,43.316,43.316,0,0,1-6.36,22.86A46.28,46.28,0,0,1-35.22-4.44,47.789,47.789,0,0,1-58.98,1.68Zm0-73.8a26.954,26.954,0,0,0-14.16,3.9A29.483,29.483,0,0,0-83.46-57.84,26.841,26.841,0,0,0-87.3-43.92a27.157,27.157,0,0,0,3.84,13.98,29.821,29.821,0,0,0,10.32,10.5,26.646,26.646,0,0,0,14.16,3.96,26.954,26.954,0,0,0,14.22-3.96,29.166,29.166,0,0,0,10.32-10.5,27.485,27.485,0,0,0,3.78-13.98,27.165,27.165,0,0,0-3.78-13.92A28.839,28.839,0,0,0-44.76-68.22,27.266,27.266,0,0,0-58.98-72.12ZM123.9-22.56A48.254,48.254,0,0,1,106.44-4.92a46.461,46.461,0,0,1-24.18,6.6,47.457,47.457,0,0,1-23.7-6.12A46.563,46.563,0,0,1,41.34-21a43.008,43.008,0,0,1-6.36-22.8,42.8,42.8,0,0,1,6.36-22.68A46.563,46.563,0,0,1,58.56-83.04a47.457,47.457,0,0,1,23.7-6.12,46.885,46.885,0,0,1,24.12,6.54A47.938,47.938,0,0,1,123.9-65.16l-17.64,6.84a34.267,34.267,0,0,0-10.62-9.84A25.7,25.7,0,0,0,82.26-72,26.954,26.954,0,0,0,68.1-68.1,28.99,28.99,0,0,0,57.84-57.72,27.165,27.165,0,0,0,54.06-43.8a27.485,27.485,0,0,0,3.78,13.98A28.842,28.842,0,0,0,68.1-19.38a26.954,26.954,0,0,0,14.16,3.9,25.409,25.409,0,0,0,13.38-3.9A34.358,34.358,0,0,0,106.26-29.4Zm47.64-67.92L219.66,0H198.9l-6.96-13.44H151.02L144.3,0H123.42Zm11.28,60.84L171.54-52.56,160.38-29.64ZM321.66,0H302.58V-41.88L275.7-10.68l-26.88-31.2V0H229.74V-90.48L275.7-38.64l45.96-51.84Zm55.8-87.72a39.78,39.78,0,0,1,18.78,4.2,30.712,30.712,0,0,1,12.3,11.34,30.118,30.118,0,0,1,4.32,15.9,30.854,30.854,0,0,1-4.02,15.72,27.839,27.839,0,0,1-12.06,10.98q-8.04,4.02-19.44,4.02H360.78V0H341.82V-87.72ZM380.1-42q6.72,0,10.2-4.2a15.289,15.289,0,0,0,3.48-10.08,15.367,15.367,0,0,0-1.8-7.26,14.275,14.275,0,0,0-5.34-5.58,15.932,15.932,0,0,0-8.46-2.16h-17.4V-42Z" transform="translate(3549.647 -448.046)"/>
  </g>
</svg>
