<svg class="p-kintocamp-mainVisual__svg" height="76.96" viewBox="0 0 872.667 76.96" width="872.667" xmlns="http://www.w3.org/2000/svg"><path d="m-264.84 1.04a32.117 32.117 0 0 1 -20.64-6.88l6.24-8.32a28.259 28.259 0 0 0 6.72 3.36 22.442 22.442 0 0 0 7.52 1.36 8.415 8.415 0 0 0 4.52-1.12 3.261 3.261 0 0 0 1.8-2.8q0-1.68-2.04-2.36a23.059 23.059 0 0 0 -3.96-.96l-2.48-.36a59 59 0 0 1 -8.28-1.92 15.508 15.508 0 0 1 -6.32-4 10.789 10.789 0 0 1 -2.84-7.92q0-8.32 6.04-11.12a28.592 28.592 0 0 1 12.12-2.8 29.223 29.223 0 0 1 9.6 1.52 31.5 31.5 0 0 1 8.72 4.8l-6.24 8.16a38.062 38.062 0 0 0 -6.16-2.96 18.138 18.138 0 0 0 -6.32-1.12 9.055 9.055 0 0 0 -3.88.88 2.69 2.69 0 0 0 -1.88 2.4q0 1.92 2.6 2.72a34.3 34.3 0 0 0 5.72 1.2 73.479 73.479 0 0 1 8.96 2 13.382 13.382 0 0 1 5.96 3.88q2.6 2.84 2.6 8.04 0 6.88-4.72 10.6t-13.36 3.72zm44.8-.08q-17.28 0-17.28-18.8v-26h12.08v26q0 4.72 2.36 6.76a9.145 9.145 0 0 0 6.2 2.04 8.33 8.33 0 0 0 6-2.6q2.64-2.6 2.4-8.92v-23.28h12v43.84h-12v-3.76a14.906 14.906 0 0 1 -5.24 3.48 17.293 17.293 0 0 1 -6.52 1.24zm47.28-40.56a12.678 12.678 0 0 1 5.24-3.72 19.9 19.9 0 0 1 8.12-1.64 22.271 22.271 0 0 1 11.8 3.04 20.074 20.074 0 0 1 7.64 8.28 25.5 25.5 0 0 1 2.64 11.64 25.5 25.5 0 0 1 -2.64 11.64 20.074 20.074 0 0 1 -7.64 8.28 22.271 22.271 0 0 1 -11.8 3.04 19.482 19.482 0 0 1 -8.04-1.56 13.462 13.462 0 0 1 -5.32-3.96v18.72h-11.84v-58.16h11.84zm-.48 17.6a12.59 12.59 0 0 0 3.28 9 11.518 11.518 0 0 0 8.8 3.48 11.489 11.489 0 0 0 8.84-3.48 12.681 12.681 0 0 0 3.24-9 12.43 12.43 0 0 0 -3.32-8.88 11.481 11.481 0 0 0 -8.76-3.52q-5.6 0-8.84 3.32t-3.24 9.08zm57.52-17.6a12.678 12.678 0 0 1 5.24-3.72 19.9 19.9 0 0 1 8.12-1.64 22.271 22.271 0 0 1 11.8 3.04 20.074 20.074 0 0 1 7.64 8.28 25.5 25.5 0 0 1 2.64 11.64 25.5 25.5 0 0 1 -2.64 11.64 20.074 20.074 0 0 1 -7.64 8.28 22.271 22.271 0 0 1 -11.8 3.04 19.482 19.482 0 0 1 -8.04-1.56 13.462 13.462 0 0 1 -5.32-3.96v18.72h-11.84v-58.16h11.84zm-.48 17.6a12.59 12.59 0 0 0 3.28 9 11.518 11.518 0 0 0 8.8 3.48 11.489 11.489 0 0 0 8.84-3.48 12.681 12.681 0 0 0 3.24-9 12.43 12.43 0 0 0 -3.32-8.88 11.481 11.481 0 0 0 -8.76-3.52q-5.6 0-8.84 3.32t-3.24 9.08zm67.44 23.04a24 24 0 0 1 -11.96-3.08 23.33 23.33 0 0 1 -8.68-8.36 21.816 21.816 0 0 1 -3.2-11.52 21.675 21.675 0 0 1 3.2-11.44 23.33 23.33 0 0 1 8.68-8.36 24 24 0 0 1 11.96-3.08 24.22 24.22 0 0 1 12 3.08 23.554 23.554 0 0 1 8.76 8.36 21.475 21.475 0 0 1 3.24 11.44 21.614 21.614 0 0 1 -3.24 11.52 23.554 23.554 0 0 1 -8.76 8.36 24.22 24.22 0 0 1 -12 3.08zm0-35.36a11.82 11.82 0 0 0 -6.08 1.64 11.83 11.83 0 0 0 -4.4 4.48 12.572 12.572 0 0 0 -1.6 6.28 13.153 13.153 0 0 0 1.56 6.44 11.626 11.626 0 0 0 4.32 4.48 11.9 11.9 0 0 0 6.2 1.64 11.755 11.755 0 0 0 6.12-1.64 11.84 11.84 0 0 0 4.36-4.52 12.954 12.954 0 0 0 1.6-6.4 12.572 12.572 0 0 0 -1.6-6.28 11.921 11.921 0 0 0 -4.36-4.48 11.755 11.755 0 0 0 -6.12-1.64zm60.56 1.2a17.755 17.755 0 0 0 -5.84.6 12.725 12.725 0 0 0 -6.32 3.96q-2.88 3.12-2.88 9.12v19.44h-11.92v-44h11.92v5.84a14.7 14.7 0 0 1 7.24-5.32 23.559 23.559 0 0 1 7.8-1.32zm21.92 17.44a10.228 10.228 0 0 0 .96 4.68q.96 1.88 4.48 1.88a27.554 27.554 0 0 0 3.04-.16v10.08a48.733 48.733 0 0 1 -5.36.32 33.22 33.22 0 0 1 -8.28-.84 8.625 8.625 0 0 1 -4.92-3.24q-1.76-2.4-1.76-6.88v-24.4h-5.36v-10.48h5.36v-11.76h11.84v11.76h8.8v10.48h-8.8zm39.84 16.8a28.837 28.837 0 0 1 -10.6-2.16 21.744 21.744 0 0 1 -9.4-7.32q-3.92-5.16-3.92-13.48t3.96-13.44a22.062 22.062 0 0 1 9.48-7.28 28.779 28.779 0 0 1 10.48-2.16 24.5 24.5 0 0 1 10.96 2.56 21.6 21.6 0 0 1 8.52 7.52 21.59 21.59 0 0 1 3.48 11.76q0 2.08-.08 3.6a18.3 18.3 0 0 1 -.16 1.92h-34.72a8.212 8.212 0 0 0 4.8 6.32 18.032 18.032 0 0 0 7.2 1.68 13.145 13.145 0 0 0 6.88-1.56 20.235 20.235 0 0 0 4.4-3.56l9.28 5.36q-7.52 10.24-20.56 10.24zm-.08-35.36a12.734 12.734 0 0 0 -8.08 2.44 8.639 8.639 0 0 0 -3.52 5.96h22a8.571 8.571 0 0 0 -1.6-4 10.537 10.537 0 0 0 -3.64-3.16 10.623 10.623 0 0 0 -5.16-1.24zm66.08 29.84a12.678 12.678 0 0 1 -5.24 3.72 19.9 19.9 0 0 1 -8.12 1.64 22.271 22.271 0 0 1 -11.8-3.04 20.074 20.074 0 0 1 -7.64-8.28 25.5 25.5 0 0 1 -2.64-11.64 25.5 25.5 0 0 1 2.64-11.64 20.074 20.074 0 0 1 7.64-8.28 22.271 22.271 0 0 1 11.8-3.04 19.482 19.482 0 0 1 8.04 1.56 13.462 13.462 0 0 1 5.32 3.96v-21.04h11.84v60.48h-11.84zm.48-17.6a12.59 12.59 0 0 0 -3.28-9 11.518 11.518 0 0 0 -8.8-3.48 11.489 11.489 0 0 0 -8.84 3.48 12.681 12.681 0 0 0 -3.24 9 12.43 12.43 0 0 0 3.32 8.88 11.48 11.48 0 0 0 8.76 3.52q5.6 0 8.84-3.32t3.24-9.08zm47.2 22v-60.48h11.84v21.04a13.462 13.462 0 0 1 5.32-3.96 19.482 19.482 0 0 1 8.04-1.56 22.271 22.271 0 0 1 11.8 3.04 20.074 20.074 0 0 1 7.64 8.28 25.5 25.5 0 0 1 2.64 11.64 25.5 25.5 0 0 1 -2.64 11.64 20.074 20.074 0 0 1 -7.64 8.28 22.271 22.271 0 0 1 -11.8 3.04 19.9 19.9 0 0 1 -8.12-1.64 12.678 12.678 0 0 1 -5.24-3.72v4.4zm11.36-22q0 5.76 3.24 9.08t8.84 3.32a11.481 11.481 0 0 0 8.76-3.52 12.43 12.43 0 0 0 3.32-8.88 12.681 12.681 0 0 0 -3.24-9 11.489 11.489 0 0 0 -8.84-3.48 11.518 11.518 0 0 0 -8.8 3.48 12.59 12.59 0 0 0 -3.28 9zm50.48 38.48 7.6-18.08-18.88-42.24h13.84l11.12 28 10.24-28h13.84l-24.56 60.32z" transform="translate(285.48 60.48)"/><g fill="#1a1311" transform="translate(463.546 -232.493)"><path d="m167.784 293.748.8 2.2h15.066v-32.6h-26.288v9.252h4.5v7.052c0 2.539-.237 4.988-4.144 4.988-3.2 0-4.147-2.267-4.147-5.082v-27.9c0-2.267.474-4.808 4.147-4.808 2.96 0 3.434 1.815 3.434 4.355v6.144h21.789v-6.625c0-6.782-1.777-11.494-5.983-14.478h-37.853c-5.873 3.807-7.323 9.786-7.323 15.931v28.584c0 5.871 1.726 11.6 6.457 15.18h26.885a15.2 15.2 0 0 0 2.66-2.193z"/><path d="m299.9 279.589v-27.4c0-6.144-1.452-12.124-7.325-15.931h-37.229c-5.871 3.807-7.321 9.786-7.321 15.931v27.4c0 6.38 1.562 12.584 8.013 16.36h35.844c6.453-3.777 8.018-9.98 8.018-16.36zm-21.793 1.062c0 2.27-.828 4.268-4.145 4.268s-4.145-2-4.145-4.268v-29.528c0-2.27.831-4.265 4.145-4.265s4.145 1.995 4.145 4.265z" transform="translate(-60.631)"/><path d="m432 279.589v-27.4c0-6.144-1.452-12.124-7.323-15.931h-37.228c-5.871 3.807-7.321 9.786-7.321 15.931v27.4c0 6.38 1.559 12.584 8.011 16.36h35.848c6.449-3.777 8.013-9.98 8.013-16.36zm-21.79 1.062c0 2.27-.829 4.268-4.147 4.268s-4.143-2-4.143-4.268v-29.528c0-2.27.829-4.265 4.143-4.265s4.147 1.995 4.147 4.265z" transform="translate(-129.534)"/><path d="m547.8 280.5v-44.246h-21.79v42.856c0 3.81-1.184 5.263-4.146 5.263s-4.142-1.453-4.142-5.263v-42.856h-21.79v44.246c0 6.473 2.052 12.02 7.949 15.453h35.973c5.897-3.437 7.946-8.984 7.946-15.453z" transform="translate(-189.936)"/><path d="m659.585 253.185v-16.931h-47.609v16.931h12.91v42.764h21.792v-42.764z" transform="translate(-250.463)"/></g></svg>